HIERARCHY
ROOT Hips
{
	OFFSET 0.000000 0.000000 0.000000
	CHANNELS 6 Xposition Yposition Zposition Xrotation Yrotation Zrotation
	JOINT LeftUpLeg_virtual
	{
		OFFSET 0.000000 0.000000 0.000000
		CHANNELS 3 Xrotation Yrotation Zrotation
		JOINT LeftUpLeg
		{
			OFFSET 11.394100 -6.187798 -0.413800
			CHANNELS 3 Xrotation Yrotation Zrotation
			JOINT LeftLeg
			{
				OFFSET 0.430247 -32.302673 3.732800
				CHANNELS 3 Xrotation Yrotation Zrotation
				JOINT LeftFoot
				{
					OFFSET -0.430247 -48.264931 -6.423300
					CHANNELS 3 Xrotation Yrotation Zrotation
					JOINT LeftToeBase
					{
						OFFSET 4.230900 -16.068199 23.438400
						CHANNELS 3 Xrotation Yrotation Zrotation
						JOINT LeftToe_End
						{
							OFFSET 4.510700 0.695400 19.974600
							CHANNELS 3 Xrotation Yrotation Zrotation
							End Site
							{
								OFFSET 0 0 0
							}
						}
					}
				}
			}
		}
	}
	JOINT RightUpLeg_virtual
	{
		OFFSET 0.000000 0.000000 0.000000
		CHANNELS 3 Xrotation Yrotation Zrotation
		JOINT RightUpLeg
		{
			OFFSET -11.333700 -6.187798 -0.413800
			CHANNELS 3 Xrotation Yrotation Zrotation
			JOINT RightLeg
			{
				OFFSET -0.430392 -32.302628 3.733000
				CHANNELS 3 Xrotation Yrotation Zrotation
				JOINT RightFoot
				{
					OFFSET 0.430392 -48.264973 -6.423500
					CHANNELS 3 Xrotation Yrotation Zrotation
					JOINT RightToeBase
					{
						OFFSET -4.230900 -16.068199 23.438400
						CHANNELS 3 Xrotation Yrotation Zrotation
						JOINT RightToe_End
						{
							OFFSET -4.510700 0.695400 19.974600
							CHANNELS 3 Xrotation Yrotation Zrotation
							End Site
							{
								OFFSET 0 0 0
							}
						}
					}
				}
			}
		}
	}
	JOINT Spine_virtual
	{
		OFFSET 0.000000 0.000000 0.000000
		CHANNELS 3 Xrotation Yrotation Zrotation
		JOINT Spine
		{
			OFFSET -0.002400 12.777504 0.315300
			CHANNELS 3 Xrotation Yrotation Zrotation
			JOINT Spine1
			{
				OFFSET -0.002067 5.816869 0.032633
				CHANNELS 3 Xrotation Yrotation Zrotation
				JOINT Spine1_split
				{
					OFFSET -0.002067 5.816869 0.032633
					CHANNELS 3 Xrotation Yrotation Zrotation
					JOINT Spine2
					{
						OFFSET -0.002067 5.816869 0.032633
						CHANNELS 3 Xrotation Yrotation Zrotation
						JOINT Neck_virtual
						{
							OFFSET 0.000000 0.000000 0.000000
							CHANNELS 3 Xrotation Yrotation Zrotation
							JOINT Neck
							{
								OFFSET -0.003700 21.199493 -0.826900
								CHANNELS 3 Xrotation Yrotation Zrotation
								JOINT Head
								{
									OFFSET 0.000000 20.442200 4.834800
									CHANNELS 3 Xrotation Yrotation Zrotation
									JOINT HeadTop_End
									{
										OFFSET 0.000000 34.668396 4.968400
										CHANNELS 3 Xrotation Yrotation Zrotation
										End Site
										{
											OFFSET 0 0 0
										}
									}
								}
							}
						}
						JOINT LeftShoulder_virtual
						{
							OFFSET 0.000000 0.000000 0.000000
							CHANNELS 3 Xrotation Yrotation Zrotation
							JOINT LeftShoulder
							{
								OFFSET 3.288150 8.794197 -1.372250
								CHANNELS 3 Xrotation Yrotation Zrotation
								JOINT LeftShoulder_split
								{
									OFFSET 3.288150 8.794197 -1.372250
									CHANNELS 3 Xrotation Yrotation Zrotation
									JOINT LeftArm
									{
										OFFSET 11.953299 -2.279007 -0.146200
										CHANNELS 3 Xrotation Yrotation Zrotation
										JOINT LeftForeArm
										{
											OFFSET 18.448900 0.000000 0.000000
											CHANNELS 3 Xrotation Yrotation Zrotation
											JOINT LeftHand
											{
												OFFSET 29.527798 0.000000 0.000000
												CHANNELS 3 Xrotation Yrotation Zrotation
												End Site
												{
													OFFSET 0 0 0
												}
											}
										}
									}
								}
							}
						}
						JOINT RightShoulder_virtual
						{
							OFFSET 0.000000 0.000000 0.000000
							CHANNELS 3 Xrotation Yrotation Zrotation
							JOINT RightShoulder
							{
								OFFSET -3.249400 8.794197 -1.372250
								CHANNELS 3 Xrotation Yrotation Zrotation
								JOINT RightShoulder_split
								{
									OFFSET -3.249400 8.794197 -1.372250
									CHANNELS 3 Xrotation Yrotation Zrotation
									JOINT RightArm
									{
										OFFSET -11.953299 -2.279007 -0.146200
										CHANNELS 3 Xrotation Yrotation Zrotation
										JOINT RightForeArm
										{
											OFFSET -18.448900 0.000000 0.000000
											CHANNELS 3 Xrotation Yrotation Zrotation
											JOINT RightHand
											{
												OFFSET -29.527802 0.000000 0.000000
												CHANNELS 3 Xrotation Yrotation Zrotation
												End Site
												{
													OFFSET 0 0 0
												}
											}
										}
									}
								}
							}
						}
					}
				}
			}
		}
	}
}
MOTION
Frames: 4
Frame Time: 0.03333333
-7.788775 93.350029 85.708176 0.000000 0.000000 0.000000 24.105027 8.696450 -6.456645 -38.243892 -3.669815 -2.906455 31.797444 3.733202 -4.604690 -12.634915 3.623967 8.990222 -2.242901 0.703258 2.148847 0.000000 0.000000 0.000000 25.164466 7.940006 -6.674010 -64.026282 -2.536258 -14.085683 49.582696 -4.591654 0.115987 16.480126 0.281418 12.750712 -23.742982 3.300307 -3.016161 0.000000 0.000000 0.000000 24.456158 7.188445 -7.324418 8.228436 0.746103 -2.419760 0.301167 2.505205 -0.361027 0.666076 0.811310 -0.349650 0.000000 0.000000 0.000000 0.018346 2.572064 -0.470529 -13.831508 0.509771 -0.208602 -9.006429 2.997047 -2.810176 0.000000 0.000000 0.000000 -0.565904 2.820415 -0.615755 0.778860 -1.098180 -19.716422 -0.330139 1.173695 -1.813468 15.856561 -6.782899 -45.875089 2.771433 -64.164163 1.375084 0.000000 0.000000 0.000000 0.023514 2.824909 -0.691732 1.202935 3.021991 18.380949 3.941233 5.042762 -1.869732 11.599768 -12.050799 50.155701 -1.285539 68.636359 1.721884 0.000000 0.000000 0.000000 
-7.321570 92.782753 91.290207 0.000000 0.000000 0.000000 23.858515 10.035587 -6.935288 -33.029944 -6.672927 -1.924777 29.139803 4.749678 -4.849816 -16.207890 1.614333 7.509154 -2.123124 1.045705 2.013907 0.000000 0.000000 0.000000 25.073122 9.948713 -7.268235 -67.658426 0.669393 -14.178271 47.433478 -4.129018 0.502784 17.966258 1.398968 15.786555 -18.494778 2.854973 -3.241323 0.000000 0.000000 0.000000 24.135966 8.835842 -7.698729 8.172951 0.239325 -2.268624 0.384286 2.498834 -0.299658 0.914670 0.638007 -0.082974 0.000000 0.000000 0.000000 0.101840 2.583207 -0.445635 -14.005532 0.253705 -0.043737 -9.026525 2.539738 -2.722669 0.000000 0.000000 0.000000 -0.444360 2.787966 -0.516357 0.702928 -1.054720 -19.421032 -0.303053 0.923497 -1.589153 16.532707 -7.314537 -46.135636 2.671678 -64.185419 1.289255 0.000000 0.000000 0.000000 0.162481 2.792083 -0.741166 1.206857 2.887285 17.887244 4.098324 5.341547 -1.126973 12.035148 -12.106507 49.985449 -1.512001 68.789840 1.802681 0.000000 0.000000 0.000000 
-6.951425 91.561172 96.781952 0.000000 0.000000 0.000000 23.733015 11.819166 -7.668050 -29.495776 -10.035446 -0.212504 28.511014 4.213430 -4.846797 -17.105032 -0.971628 3.960445 -3.778073 1.231866 2.982902 0.000000 0.000000 0.000000 25.075571 12.414347 -8.098966 -70.260619 3.247769 -13.482538 46.103309 -3.683552 0.888797 16.874851 2.381516 17.841118 -13.374071 2.136287 -3.098172 0.000000 0.000000 0.000000 23.592737 10.584160 -8.115639 8.214259 -0.384362 -2.282548 0.508126 2.494522 -0.259388 1.114827 0.668656 0.258577 0.000000 0.000000 0.000000 0.174090 2.571119 -0.435110 -13.947799 0.000491 0.262961 -9.090440 2.036549 -2.623898 0.000000 0.000000 0.000000 -0.308185 2.751401 -0.455818 0.633139 -0.975410 -18.912106 -0.191425 0.460382 -1.168643 17.141260 -7.457446 -46.715396 2.460755 -64.669324 1.182681 0.000000 0.000000 0.000000 0.330591 2.738520 -0.777351 1.225157 2.771085 17.344900 4.165476 5.386093 -0.495523 12.684882 -12.079791 50.140484 -1.524065 69.117799 1.658237 0.000000 0.000000 0.000000 
-6.865906 90.182098 102.256256 0.000000 0.000000 0.000000 23.958026 13.750764 -8.572722 -26.214008 -12.844476 1.515623 28.970681 4.003909 -4.733701 -17.594767 -3.416674 0.904277 -6.079567 1.207152 4.270250 0.000000 0.000000 0.000000 25.059785 15.163829 -9.016341 -72.341498 4.815307 -12.364116 44.676380 -4.016006 1.465663 12.970388 2.090555 17.184498 -6.061391 1.382394 -2.478715 0.000000 0.000000 0.000000 23.010206 12.334633 -8.539002 8.357840 -1.140963 -2.289939 0.677652 2.416983 -0.235548 1.186297 0.836275 0.728086 0.000000 0.000000 0.000000 0.195731 2.483297 -0.408328 -13.672060 -0.130395 0.528450 -9.293412 1.675206 -2.635756 0.000000 0.000000 0.000000 -0.136191 2.664753 -0.418096 0.586294 -0.894994 -18.310714 0.028112 -0.090356 -0.725808 17.564088 -7.217765 -47.589930 2.174999 -65.217412 1.089035 0.000000 0.000000 0.000000 0.506384 2.624998 -0.794963 1.247450 2.647015 16.848084 4.121974 5.263683 0.057497 13.617761 -11.798137 50.499823 -1.347024 69.508820 1.344108 0.000000 0.000000 0.000000 
